# xmcd
#
# Track frame offsets:
#	151
#	26393
#	56947
#	80854
#	104647
#	126534
#	161030
#	188628
#	218185
#	247552
#	284153
#	319965
#
# Disc length: 4722 seconds
#
# Revision: 1
# Processed by: cddbd v1.5.1PL2 Copyright (c) Steve Scherf et al.
# Submitted via: audiograbber 1.83.01
#
DISCID=b912700c
DTITLE=Swing Out Sister - Live in Tokyo
DYEAR=2005
DGENRE=Jazz
TTITLE0=Surrender/World Out Of Control
TTITLE1=Get in Touch with Yourself
TTITLE2=La La Means I Love You
TTITLE3=Sugarfree
TTITLE4=Stoned Soul Picnic
TTITLE5=Closer than the Sun/Forever Blue
TTITLE6=Heaven Only Knows
TTITLE7=Filth and Dreams
TTITLE8=Now You're Not Here/No Scrubs
TTITLE9=Am I the Same Girl
TTITLE10=Breakout/When Morning Comes
TTITLE11=Twilight World
EXTD=YEAR: 2005
EXTT0=
EXTT1=
EXTT2=
EXTT3=
EXTT4=
EXTT5=
EXTT6=
EXTT7=
EXTT8=
EXTT9=
EXTT10=
EXTT11=
PLAYORDER=
